<?xml version="1.0" encoding="UTF-8" standalone="no"?>
<!DOCTYPE svg PUBLIC "-//W3C//DTD SVG 1.1//EN"
 "http://www.w3.org/Graphics/SVG/1.1/DTD/svg11.dtd">
<!-- Generated by graphviz version 14.1.4 (0)
 -->
<!-- Title: G Pages: 1 -->
<svg width="1680pt" height="983pt"
 viewBox="0.00 0.00 1680.00 983.00" xmlns="http://www.w3.org/2000/svg" xmlns:xlink="http://www.w3.org/1999/xlink">
<g id="graph0" class="graph" transform="scale(1 1) rotate(0) translate(21.6 961.35)">
<title>G</title>
<polygon fill="#111111" stroke="none" points="-21.6,21.6 -21.6,-961.35 1658.35,-961.35 1658.35,21.6 -21.6,21.6"/>
<!-- app.controller.ts -->
<g id="node1" class="node">
<title>app.controller.ts</title>
<path fill="none" stroke="#c6c5fe" d="M415.08,-938.75C415.08,-938.75 319.67,-938.75 319.67,-938.75 315.71,-938.75 311.75,-934.79 311.75,-930.83 311.75,-930.83 311.75,-922.92 311.75,-922.92 311.75,-918.96 315.71,-915 319.67,-915 319.67,-915 415.08,-915 415.08,-915 419.04,-915 423,-918.96 423,-922.92 423,-922.92 423,-930.83 423,-930.83 423,-934.79 419.04,-938.75 415.08,-938.75"/>
<text xml:space="preserve" text-anchor="middle" x="367.38" y="-921.45" font-family="Arial" font-size="14.00" fill="#c6c5fe">app.controller.ts</text>
</g>
<!-- app.service.ts -->
<g id="node2" class="node">
<title>app.service.ts</title>
<path fill="none" stroke="#cfffac" d="M717.21,-939.75C717.21,-939.75 633.79,-939.75 633.79,-939.75 629.83,-939.75 625.88,-935.79 625.88,-931.83 625.88,-931.83 625.88,-923.92 625.88,-923.92 625.88,-919.96 629.83,-916 633.79,-916 633.79,-916 717.21,-916 717.21,-916 721.17,-916 725.12,-919.96 725.12,-923.92 725.12,-923.92 725.12,-931.83 725.12,-931.83 725.12,-935.79 721.17,-939.75 717.21,-939.75"/>
<text xml:space="preserve" text-anchor="middle" x="675.5" y="-922.45" font-family="Arial" font-size="14.00" fill="#cfffac">app.service.ts</text>
</g>
<!-- app.controller.ts&#45;&gt;app.service.ts -->
<g id="edge1" class="edge">
<title>app.controller.ts&#45;&gt;app.service.ts</title>
<path fill="none" stroke="#757575" d="M423.46,-927.05C477.13,-927.23 558.54,-927.5 614,-927.68"/>
<polygon fill="#757575" stroke="#757575" points="613.89,-931.18 623.9,-927.71 613.92,-924.18 613.89,-931.18"/>
</g>
<!-- app.module.ts -->
<g id="node3" class="node">
<title>app.module.ts</title>
<path fill="none" stroke="#c6c5fe" d="M189.83,-561.75C189.83,-561.75 104.17,-561.75 104.17,-561.75 100.21,-561.75 96.25,-557.79 96.25,-553.83 96.25,-553.83 96.25,-545.92 96.25,-545.92 96.25,-541.96 100.21,-538 104.17,-538 104.17,-538 189.83,-538 189.83,-538 193.79,-538 197.75,-541.96 197.75,-545.92 197.75,-545.92 197.75,-553.83 197.75,-553.83 197.75,-557.79 193.79,-561.75 189.83,-561.75"/>
<text xml:space="preserve" text-anchor="middle" x="147" y="-544.45" font-family="Arial" font-size="14.00" fill="#c6c5fe">app.module.ts</text>
</g>
<!-- app.module.ts&#45;&gt;app.controller.ts -->
<g id="edge2" class="edge">
<title>app.module.ts&#45;&gt;app.controller.ts</title>
<path fill="none" stroke="#757575" d="M149.24,-561.88C155.22,-617.7 183.01,-851.1 233.75,-899.88 251.29,-916.74 276.34,-924.38 299.96,-927.49"/>
<polygon fill="#757575" stroke="#757575" points="299.58,-930.97 309.89,-928.53 300.31,-924.01 299.58,-930.97"/>
</g>
<!-- app.module.ts&#45;&gt;app.service.ts -->
<g id="edge3" class="edge">
<title>app.module.ts&#45;&gt;app.service.ts</title>
<path fill="none" stroke="#757575" d="M149.55,-562.14C156.47,-615.07 186.39,-823.04 233.75,-864.88 240.85,-871.15 495.88,-904.8 614.7,-920.19"/>
<polygon fill="#757575" stroke="#757575" points="613.89,-923.61 624.26,-921.42 614.79,-916.67 613.89,-923.61"/>
</g>
<!-- modules/addresses/addresses.module.ts -->
<g id="node4" class="node">
<title>modules/addresses/addresses.module.ts</title>
<path fill="none" stroke="#c6c5fe" d="M490.83,-855.75C490.83,-855.75 243.92,-855.75 243.92,-855.75 239.96,-855.75 236,-851.79 236,-847.83 236,-847.83 236,-839.92 236,-839.92 236,-835.96 239.96,-832 243.92,-832 243.92,-832 490.83,-832 490.83,-832 494.79,-832 498.75,-835.96 498.75,-839.92 498.75,-839.92 498.75,-847.83 498.75,-847.83 498.75,-851.79 494.79,-855.75 490.83,-855.75"/>
<text xml:space="preserve" text-anchor="middle" x="367.38" y="-838.45" font-family="Arial" font-size="14.00" fill="#c6c5fe">modules/addresses/addresses.module.ts</text>
</g>
<!-- app.module.ts&#45;&gt;modules/addresses/addresses.module.ts -->
<g id="edge4" class="edge">
<title>app.module.ts&#45;&gt;modules/addresses/addresses.module.ts</title>
<path fill="none" stroke="#757575" d="M149.3,-562.07C153.89,-599.47 172.51,-713.99 233.75,-780.88 253.87,-802.85 283.27,-817.89 309.28,-827.75"/>
<polygon fill="#757575" stroke="#757575" points="307.78,-830.93 318.38,-831.02 310.15,-824.35 307.78,-830.93"/>
</g>
<!-- modules/auth/auth.module.ts -->
<g id="node5" class="node">
<title>modules/auth/auth.module.ts</title>
<path fill="none" stroke="#c6c5fe" d="M454.83,-771.75C454.83,-771.75 279.92,-771.75 279.92,-771.75 275.96,-771.75 272,-767.79 272,-763.83 272,-763.83 272,-755.92 272,-755.92 272,-751.96 275.96,-748 279.92,-748 279.92,-748 454.83,-748 454.83,-748 458.79,-748 462.75,-751.96 462.75,-755.92 462.75,-755.92 462.75,-763.83 462.75,-763.83 462.75,-767.79 458.79,-771.75 454.83,-771.75"/>
<text xml:space="preserve" text-anchor="middle" x="367.38" y="-754.45" font-family="Arial" font-size="14.00" fill="#c6c5fe">modules/auth/auth.module.ts</text>
</g>
<!-- app.module.ts&#45;&gt;modules/auth/auth.module.ts -->
<g id="edge5" class="edge">
<title>app.module.ts&#45;&gt;modules/auth/auth.module.ts</title>
<path fill="none" stroke="#757575" d="M152.27,-562.16C162.38,-589.66 190.24,-656.9 233.75,-696.88 256.76,-718.02 288.16,-733.36 314.62,-743.61"/>
<polygon fill="#757575" stroke="#757575" points="313.23,-746.83 323.83,-747.03 315.67,-740.27 313.23,-746.83"/>
</g>
<!-- modules/bookings/bookings.module.ts -->
<g id="node6" class="node">
<title>modules/bookings/bookings.module.ts</title>
<path fill="none" stroke="#c6c5fe" d="M482.58,-687.75C482.58,-687.75 252.17,-687.75 252.17,-687.75 248.21,-687.75 244.25,-683.79 244.25,-679.83 244.25,-679.83 244.25,-671.92 244.25,-671.92 244.25,-667.96 248.21,-664 252.17,-664 252.17,-664 482.58,-664 482.58,-664 486.54,-664 490.5,-667.96 490.5,-671.92 490.5,-671.92 490.5,-679.83 490.5,-679.83 490.5,-683.79 486.54,-687.75 482.58,-687.75"/>
<text xml:space="preserve" text-anchor="middle" x="367.38" y="-670.45" font-family="Arial" font-size="14.00" fill="#c6c5fe">modules/bookings/bookings.module.ts</text>
</g>
<!-- app.module.ts&#45;&gt;modules/bookings/bookings.module.ts -->
<g id="edge6" class="edge">
<title>app.module.ts&#45;&gt;modules/bookings/bookings.module.ts</title>
<path fill="none" stroke="#757575" d="M162.88,-562.17C179.53,-575.59 207.58,-597.24 233.75,-612.88 263.46,-630.63 298.97,-647.27 325.77,-658.99"/>
<polygon fill="#757575" stroke="#757575" points="324.35,-662.19 334.92,-662.94 327.12,-655.77 324.35,-662.19"/>
</g>
<!-- modules/categories/categories.module.ts -->
<g id="node7" class="node">
<title>modules/categories/categories.module.ts</title>
<path fill="none" stroke="#c6c5fe" d="M490.83,-603.75C490.83,-603.75 243.92,-603.75 243.92,-603.75 239.96,-603.75 236,-599.79 236,-595.83 236,-595.83 236,-587.92 236,-587.92 236,-583.96 239.96,-580 243.92,-580 243.92,-580 490.83,-580 490.83,-580 494.79,-580 498.75,-583.96 498.75,-587.92 498.75,-587.92 498.75,-595.83 498.75,-595.83 498.75,-599.79 494.79,-603.75 490.83,-603.75"/>
<text xml:space="preserve" text-anchor="middle" x="367.38" y="-586.45" font-family="Arial" font-size="14.00" fill="#c6c5fe">modules/categories/categories.module.ts</text>
</g>
<!-- app.module.ts&#45;&gt;modules/categories/categories.module.ts -->
<g id="edge7" class="edge">
<title>app.module.ts&#45;&gt;modules/categories/categories.module.ts</title>
<path fill="none" stroke="#757575" d="M198.1,-559.51C225.69,-564.82 260.48,-571.51 291.26,-577.43"/>
<polygon fill="#757575" stroke="#757575" points="290.43,-580.83 300.91,-579.28 291.75,-573.96 290.43,-580.83"/>
</g>
<!-- modules/database/database.module.ts -->
<g id="node8" class="node">
<title>modules/database/database.module.ts</title>
<path fill="none" stroke="#c6c5fe" d="M792.21,-561.75C792.21,-561.75 558.79,-561.75 558.79,-561.75 554.83,-561.75 550.88,-557.79 550.88,-553.83 550.88,-553.83 550.88,-545.92 550.88,-545.92 550.88,-541.96 554.83,-538 558.79,-538 558.79,-538 792.21,-538 792.21,-538 796.17,-538 800.12,-541.96 800.12,-545.92 800.12,-545.92 800.12,-553.83 800.12,-553.83 800.12,-557.79 796.17,-561.75 792.21,-561.75"/>
<text xml:space="preserve" text-anchor="middle" x="675.5" y="-544.45" font-family="Arial" font-size="14.00" fill="#c6c5fe">modules/database/database.module.ts</text>
</g>
<!-- app.module.ts&#45;&gt;modules/database/database.module.ts -->
<g id="edge8" class="edge">
<title>app.module.ts&#45;&gt;modules/database/database.module.ts</title>
<path fill="none" stroke="#757575" d="M198.01,-549.88C275.56,-549.88 427.5,-549.88 539.04,-549.88"/>
<polygon fill="#757575" stroke="#757575" points="538.87,-553.38 548.87,-549.88 538.87,-546.38 538.87,-553.38"/>
</g>
<!-- modules/notification/notification.module.ts -->
<g id="node9" class="node">
<title>modules/notification/notification.module.ts</title>
<path fill="none" stroke="#c6c5fe" d="M493.08,-519.75C493.08,-519.75 241.67,-519.75 241.67,-519.75 237.71,-519.75 233.75,-515.79 233.75,-511.83 233.75,-511.83 233.75,-503.92 233.75,-503.92 233.75,-499.96 237.71,-496 241.67,-496 241.67,-496 493.08,-496 493.08,-496 497.04,-496 501,-499.96 501,-503.92 501,-503.92 501,-511.83 501,-511.83 501,-515.79 497.04,-519.75 493.08,-519.75"/>
<text xml:space="preserve" text-anchor="middle" x="367.38" y="-502.45" font-family="Arial" font-size="14.00" fill="#c6c5fe">modules/notification/notification.module.ts</text>
</g>
<!-- app.module.ts&#45;&gt;modules/notification/notification.module.ts -->
<g id="edge9" class="edge">
<title>app.module.ts&#45;&gt;modules/notification/notification.module.ts</title>
<path fill="none" stroke="#757575" d="M198.1,-540.24C225.69,-534.93 260.48,-528.24 291.26,-522.32"/>
<polygon fill="#757575" stroke="#757575" points="291.75,-525.79 300.91,-520.47 290.43,-518.92 291.75,-525.79"/>
</g>
<!-- modules/payments/payments.module.ts -->
<g id="node10" class="node">
<title>modules/payments/payments.module.ts</title>
<path fill="none" stroke="#c6c5fe" d="M487.83,-401.75C487.83,-401.75 246.92,-401.75 246.92,-401.75 242.96,-401.75 239,-397.79 239,-393.83 239,-393.83 239,-385.92 239,-385.92 239,-381.96 242.96,-378 246.92,-378 246.92,-378 487.83,-378 487.83,-378 491.79,-378 495.75,-381.96 495.75,-385.92 495.75,-385.92 495.75,-393.83 495.75,-393.83 495.75,-397.79 491.79,-401.75 487.83,-401.75"/>
<text xml:space="preserve" text-anchor="middle" x="367.38" y="-384.45" font-family="Arial" font-size="14.00" fill="#c6c5fe">modules/payments/payments.module.ts</text>
</g>
<!-- app.module.ts&#45;&gt;modules/payments/payments.module.ts -->
<g id="edge10" class="edge">
<title>app.module.ts&#45;&gt;modules/payments/payments.module.ts</title>
<path fill="none" stroke="#757575" d="M164.75,-537.55C182.03,-524.84 209.76,-504.46 233.75,-486.88 270.84,-459.69 313.81,-428.28 340.54,-408.74"/>
<polygon fill="#757575" stroke="#757575" points="342.39,-411.73 348.4,-403.01 338.26,-406.08 342.39,-411.73"/>
</g>
<!-- modules/reviews/reviews.module.ts -->
<g id="node11" class="node">
<title>modules/reviews/reviews.module.ts</title>
<path fill="none" stroke="#c6c5fe" d="M474.33,-317.75C474.33,-317.75 260.42,-317.75 260.42,-317.75 256.46,-317.75 252.5,-313.79 252.5,-309.83 252.5,-309.83 252.5,-301.92 252.5,-301.92 252.5,-297.96 256.46,-294 260.42,-294 260.42,-294 474.33,-294 474.33,-294 478.29,-294 482.25,-297.96 482.25,-301.92 482.25,-301.92 482.25,-309.83 482.25,-309.83 482.25,-313.79 478.29,-317.75 474.33,-317.75"/>
<text xml:space="preserve" text-anchor="middle" x="367.38" y="-300.45" font-family="Arial" font-size="14.00" fill="#c6c5fe">modules/reviews/reviews.module.ts</text>
</g>
<!-- app.module.ts&#45;&gt;modules/reviews/reviews.module.ts -->
<g id="edge11" class="edge">
<title>app.module.ts&#45;&gt;modules/reviews/reviews.module.ts</title>
<path fill="none" stroke="#757575" d="M150.74,-537.66C158.45,-505.87 183.13,-419.55 233.75,-368.88 255.36,-347.24 285.85,-332.05 312.14,-322.01"/>
<polygon fill="#757575" stroke="#757575" points="313.11,-325.38 321.31,-318.67 310.72,-318.8 313.11,-325.38"/>
</g>
<!-- modules/schedules/schedules.module.ts -->
<g id="node12" class="node">
<title>modules/schedules/schedules.module.ts</title>
<path fill="none" stroke="#c6c5fe" d="M489.33,-233.75C489.33,-233.75 245.42,-233.75 245.42,-233.75 241.46,-233.75 237.5,-229.79 237.5,-225.83 237.5,-225.83 237.5,-217.92 237.5,-217.92 237.5,-213.96 241.46,-210 245.42,-210 245.42,-210 489.33,-210 489.33,-210 493.29,-210 497.25,-213.96 497.25,-217.92 497.25,-217.92 497.25,-225.83 497.25,-225.83 497.25,-229.79 493.29,-233.75 489.33,-233.75"/>
<text xml:space="preserve" text-anchor="middle" x="367.38" y="-216.45" font-family="Arial" font-size="14.00" fill="#c6c5fe">modules/schedules/schedules.module.ts</text>
</g>
<!-- app.module.ts&#45;&gt;modules/schedules/schedules.module.ts -->
<g id="edge12" class="edge">
<title>app.module.ts&#45;&gt;modules/schedules/schedules.module.ts</title>
<path fill="none" stroke="#757575" d="M148.62,-537.67C151.31,-496.82 165.19,-363.03 233.75,-284.88 253.09,-262.83 281.84,-247.87 307.63,-238.09"/>
<polygon fill="#757575" stroke="#757575" points="308.81,-241.38 317.04,-234.71 306.45,-234.79 308.81,-241.38"/>
</g>
<!-- modules/services/services.module.ts -->
<g id="node13" class="node">
<title>modules/services/services.module.ts</title>
<path fill="none" stroke="#c6c5fe" d="M478.08,-149.75C478.08,-149.75 256.67,-149.75 256.67,-149.75 252.71,-149.75 248.75,-145.79 248.75,-141.83 248.75,-141.83 248.75,-133.92 248.75,-133.92 248.75,-129.96 252.71,-126 256.67,-126 256.67,-126 478.08,-126 478.08,-126 482.04,-126 486,-129.96 486,-133.92 486,-133.92 486,-141.83 486,-141.83 486,-145.79 482.04,-149.75 478.08,-149.75"/>
<text xml:space="preserve" text-anchor="middle" x="367.38" y="-132.45" font-family="Arial" font-size="14.00" fill="#c6c5fe">modules/services/services.module.ts</text>
</g>
<!-- app.module.ts&#45;&gt;modules/services/services.module.ts -->
<g id="edge13" class="edge">
<title>app.module.ts&#45;&gt;modules/services/services.module.ts</title>
<path fill="none" stroke="#757575" d="M147.47,-537.75C146.02,-489.36 146.8,-307.49 233.75,-200.88 251.93,-178.58 279.87,-163.69 305.42,-154.02"/>
<polygon fill="#757575" stroke="#757575" points="306.51,-157.35 314.76,-150.7 304.16,-150.75 306.51,-157.35"/>
</g>
<!-- modules/users/users.module.ts -->
<g id="node14" class="node">
<title>modules/users/users.module.ts</title>
<path fill="none" stroke="#c6c5fe" d="M461.58,-65.75C461.58,-65.75 273.17,-65.75 273.17,-65.75 269.21,-65.75 265.25,-61.79 265.25,-57.83 265.25,-57.83 265.25,-49.92 265.25,-49.92 265.25,-45.96 269.21,-42 273.17,-42 273.17,-42 461.58,-42 461.58,-42 465.54,-42 469.5,-45.96 469.5,-49.92 469.5,-49.92 469.5,-57.83 469.5,-57.83 469.5,-61.79 465.54,-65.75 461.58,-65.75"/>
<text xml:space="preserve" text-anchor="middle" x="367.38" y="-48.45" font-family="Arial" font-size="14.00" fill="#c6c5fe">modules/users/users.module.ts</text>
</g>
<!-- app.module.ts&#45;&gt;modules/users/users.module.ts -->
<g id="edge14" class="edge">
<title>app.module.ts&#45;&gt;modules/users/users.module.ts</title>
<path fill="none" stroke="#757575" d="M148.96,-537.53C154.11,-474.15 180.21,-185.66 233.75,-116.88 251.22,-94.43 278.65,-79.59 304.04,-69.98"/>
<polygon fill="#757575" stroke="#757575" points="305.08,-73.32 313.34,-66.68 302.74,-66.73 305.08,-73.32"/>
</g>
<!-- modules/addresses/addresses.controller.ts -->
<g id="node19" class="node">
<title>modules/addresses/addresses.controller.ts</title>
<path fill="none" stroke="#cfffac" d="M803.83,-897.75C803.83,-897.75 547.17,-897.75 547.17,-897.75 543.21,-897.75 539.25,-893.79 539.25,-889.83 539.25,-889.83 539.25,-881.92 539.25,-881.92 539.25,-877.96 543.21,-874 547.17,-874 547.17,-874 803.83,-874 803.83,-874 807.79,-874 811.75,-877.96 811.75,-881.92 811.75,-881.92 811.75,-889.83 811.75,-889.83 811.75,-893.79 807.79,-897.75 803.83,-897.75"/>
<text xml:space="preserve" text-anchor="middle" x="675.5" y="-880.45" font-family="Arial" font-size="14.00" fill="#cfffac">modules/addresses/addresses.controller.ts</text>
</g>
<!-- modules/addresses/addresses.module.ts&#45;&gt;modules/addresses/addresses.controller.ts -->
<g id="edge18" class="edge">
<title>modules/addresses/addresses.module.ts&#45;&gt;modules/addresses/addresses.controller.ts</title>
<path fill="none" stroke="#757575" d="M458.57,-856.25C494.53,-861.18 536.1,-866.89 573.1,-871.96"/>
<polygon fill="#757575" stroke="#757575" points="572.54,-875.42 582.92,-873.31 573.49,-868.48 572.54,-875.42"/>
</g>
<!-- modules/addresses/addresses.service.ts -->
<g id="node20" class="node">
<title>modules/addresses/addresses.service.ts</title>
<path fill="none" stroke="#cfffac" d="M797.83,-855.75C797.83,-855.75 553.17,-855.75 553.17,-855.75 549.21,-855.75 545.25,-851.79 545.25,-847.83 545.25,-847.83 545.25,-839.92 545.25,-839.92 545.25,-835.96 549.21,-832 553.17,-832 553.17,-832 797.83,-832 797.83,-832 801.79,-832 805.75,-835.96 805.75,-839.92 805.75,-839.92 805.75,-847.83 805.75,-847.83 805.75,-851.79 801.79,-855.75 797.83,-855.75"/>
<text xml:space="preserve" text-anchor="middle" x="675.5" y="-838.45" font-family="Arial" font-size="14.00" fill="#cfffac">modules/addresses/addresses.service.ts</text>
</g>
<!-- modules/addresses/addresses.module.ts&#45;&gt;modules/addresses/addresses.service.ts -->
<g id="edge19" class="edge">
<title>modules/addresses/addresses.module.ts&#45;&gt;modules/addresses/addresses.service.ts</title>
<path fill="none" stroke="#757575" d="M499.09,-843.88C510.54,-843.88 522.17,-843.88 533.71,-843.88"/>
<polygon fill="#757575" stroke="#757575" points="533.69,-847.38 543.69,-843.88 533.69,-840.38 533.69,-847.38"/>
</g>
<!-- modules/auth/auth.controller.ts -->
<g id="node21" class="node">
<title>modules/auth/auth.controller.ts</title>
<path fill="none" stroke="#cfffac" d="M767.83,-813.75C767.83,-813.75 583.17,-813.75 583.17,-813.75 579.21,-813.75 575.25,-809.79 575.25,-805.83 575.25,-805.83 575.25,-797.92 575.25,-797.92 575.25,-793.96 579.21,-790 583.17,-790 583.17,-790 767.83,-790 767.83,-790 771.79,-790 775.75,-793.96 775.75,-797.92 775.75,-797.92 775.75,-805.83 775.75,-805.83 775.75,-809.79 771.79,-813.75 767.83,-813.75"/>
<text xml:space="preserve" text-anchor="middle" x="675.5" y="-796.45" font-family="Arial" font-size="14.00" fill="#cfffac">modules/auth/auth.controller.ts</text>
</g>
<!-- modules/auth/auth.module.ts&#45;&gt;modules/auth/auth.controller.ts -->
<g id="edge20" class="edge">
<title>modules/auth/auth.module.ts&#45;&gt;modules/auth/auth.controller.ts</title>
<path fill="none" stroke="#757575" d="M458.57,-772.25C494.53,-777.18 536.1,-782.89 573.1,-787.96"/>
<polygon fill="#757575" stroke="#757575" points="572.54,-791.42 582.92,-789.31 573.49,-784.48 572.54,-791.42"/>
</g>
<!-- modules/auth/auth.service.ts -->
<g id="node22" class="node">
<title>modules/auth/auth.service.ts</title>
<path fill="none" stroke="#cfffac" d="M761.83,-771.75C761.83,-771.75 589.17,-771.75 589.17,-771.75 585.21,-771.75 581.25,-767.79 581.25,-763.83 581.25,-763.83 581.25,-755.92 581.25,-755.92 581.25,-751.96 585.21,-748 589.17,-748 589.17,-748 761.83,-748 761.83,-748 765.79,-748 769.75,-751.96 769.75,-755.92 769.75,-755.92 769.75,-763.83 769.75,-763.83 769.75,-767.79 765.79,-771.75 761.83,-771.75"/>
<text xml:space="preserve" text-anchor="middle" x="675.5" y="-754.45" font-family="Arial" font-size="14.00" fill="#cfffac">modules/auth/auth.service.ts</text>
</g>
<!-- modules/auth/auth.module.ts&#45;&gt;modules/auth/auth.service.ts -->
<g id="edge21" class="edge">
<title>modules/auth/auth.module.ts&#45;&gt;modules/auth/auth.service.ts</title>
<path fill="none" stroke="#757575" d="M463.14,-759.88C496.97,-759.88 535.26,-759.88 569.87,-759.88"/>
<polygon fill="#757575" stroke="#757575" points="569.46,-763.38 579.46,-759.88 569.46,-756.38 569.46,-763.38"/>
</g>
<!-- modules/bookings/bookings.controller.ts -->
<g id="node23" class="node">
<title>modules/bookings/bookings.controller.ts</title>
<path fill="none" stroke="#cfffac" d="M795.58,-729.75C795.58,-729.75 555.42,-729.75 555.42,-729.75 551.46,-729.75 547.5,-725.79 547.5,-721.83 547.5,-721.83 547.5,-713.92 547.5,-713.92 547.5,-709.96 551.46,-706 555.42,-706 555.42,-706 795.58,-706 795.58,-706 799.54,-706 803.5,-709.96 803.5,-713.92 803.5,-713.92 803.5,-721.83 803.5,-721.83 803.5,-725.79 799.54,-729.75 795.58,-729.75"/>
<text xml:space="preserve" text-anchor="middle" x="675.5" y="-712.45" font-family="Arial" font-size="14.00" fill="#cfffac">modules/bookings/bookings.controller.ts</text>
</g>
<!-- modules/bookings/bookings.module.ts&#45;&gt;modules/bookings/bookings.controller.ts -->
<g id="edge22" class="edge">
<title>modules/bookings/bookings.module.ts&#45;&gt;modules/bookings/bookings.controller.ts</title>
<path fill="none" stroke="#757575" d="M458.57,-688.25C494.53,-693.18 536.1,-698.89 573.1,-703.96"/>
<polygon fill="#757575" stroke="#757575" points="572.54,-707.42 582.92,-705.31 573.49,-700.48 572.54,-707.42"/>
</g>
<!-- modules/bookings/bookings.service.ts -->
<g id="node24" class="node">
<title>modules/bookings/bookings.service.ts</title>
<path fill="none" stroke="#cfffac" d="M789.58,-687.75C789.58,-687.75 561.42,-687.75 561.42,-687.75 557.46,-687.75 553.5,-683.79 553.5,-679.83 553.5,-679.83 553.5,-671.92 553.5,-671.92 553.5,-667.96 557.46,-664 561.42,-664 561.42,-664 789.58,-664 789.58,-664 793.54,-664 797.5,-667.96 797.5,-671.92 797.5,-671.92 797.5,-679.83 797.5,-679.83 797.5,-683.79 793.54,-687.75 789.58,-687.75"/>
<text xml:space="preserve" text-anchor="middle" x="675.5" y="-670.45" font-family="Arial" font-size="14.00" fill="#cfffac">modules/bookings/bookings.service.ts</text>
</g>
<!-- modules/bookings/bookings.module.ts&#45;&gt;modules/bookings/bookings.service.ts -->
<g id="edge23" class="edge">
<title>modules/bookings/bookings.module.ts&#45;&gt;modules/bookings/bookings.service.ts</title>
<path fill="none" stroke="#757575" d="M490.68,-675.88C507.62,-675.88 525.09,-675.88 542.2,-675.88"/>
<polygon fill="#757575" stroke="#757575" points="541.87,-679.38 551.87,-675.88 541.87,-672.38 541.87,-679.38"/>
</g>
<!-- modules/categories/categories.controller.ts -->
<g id="node25" class="node">
<title>modules/categories/categories.controller.ts</title>
<path fill="none" stroke="#cfffac" d="M803.83,-645.75C803.83,-645.75 547.17,-645.75 547.17,-645.75 543.21,-645.75 539.25,-641.79 539.25,-637.83 539.25,-637.83 539.25,-629.92 539.25,-629.92 539.25,-625.96 543.21,-622 547.17,-622 547.17,-622 803.83,-622 803.83,-622 807.79,-622 811.75,-625.96 811.75,-629.92 811.75,-629.92 811.75,-637.83 811.75,-637.83 811.75,-641.79 807.79,-645.75 803.83,-645.75"/>
<text xml:space="preserve" text-anchor="middle" x="675.5" y="-628.45" font-family="Arial" font-size="14.00" fill="#cfffac">modules/categories/categories.controller.ts</text>
</g>
<!-- modules/categories/categories.module.ts&#45;&gt;modules/categories/categories.controller.ts -->
<g id="edge24" class="edge">
<title>modules/categories/categories.module.ts&#45;&gt;modules/categories/categories.controller.ts</title>
<path fill="none" stroke="#757575" d="M458.57,-604.25C494.53,-609.18 536.1,-614.89 573.1,-619.96"/>
<polygon fill="#757575" stroke="#757575" points="572.54,-623.42 582.92,-621.31 573.49,-616.48 572.54,-623.42"/>
</g>
<!-- modules/categories/categories.service.ts -->
<g id="node26" class="node">
<title>modules/categories/categories.service.ts</title>
<path fill="none" stroke="#cfffac" d="M797.83,-603.75C797.83,-603.75 553.17,-603.75 553.17,-603.75 549.21,-603.75 545.25,-599.79 545.25,-595.83 545.25,-595.83 545.25,-587.92 545.25,-587.92 545.25,-583.96 549.21,-580 553.17,-580 553.17,-580 797.83,-580 797.83,-580 801.79,-580 805.75,-583.96 805.75,-587.92 805.75,-587.92 805.75,-595.83 805.75,-595.83 805.75,-599.79 801.79,-603.75 797.83,-603.75"/>
<text xml:space="preserve" text-anchor="middle" x="675.5" y="-586.45" font-family="Arial" font-size="14.00" fill="#cfffac">modules/categories/categories.service.ts</text>
</g>
<!-- modules/categories/categories.module.ts&#45;&gt;modules/categories/categories.service.ts -->
<g id="edge25" class="edge">
<title>modules/categories/categories.module.ts&#45;&gt;modules/categories/categories.service.ts</title>
<path fill="none" stroke="#757575" d="M499.09,-591.88C510.54,-591.88 522.17,-591.88 533.71,-591.88"/>
<polygon fill="#757575" stroke="#757575" points="533.69,-595.38 543.69,-591.88 533.69,-588.38 533.69,-595.38"/>
</g>
<!-- modules/database/database.provider.ts -->
<g id="node27" class="node">
<title>modules/database/database.provider.ts</title>
<path fill="none" stroke="#cfffac" d="M1103.33,-569.75C1103.33,-569.75 866.92,-569.75 866.92,-569.75 862.96,-569.75 859,-565.79 859,-561.83 859,-561.83 859,-553.92 859,-553.92 859,-549.96 862.96,-546 866.92,-546 866.92,-546 1103.33,-546 1103.33,-546 1107.29,-546 1111.25,-549.96 1111.25,-553.92 1111.25,-553.92 1111.25,-561.83 1111.25,-561.83 1111.25,-565.79 1107.29,-569.75 1103.33,-569.75"/>
<text xml:space="preserve" text-anchor="middle" x="985.12" y="-552.45" font-family="Arial" font-size="14.00" fill="#cfffac">modules/database/database.provider.ts</text>
</g>
<!-- modules/database/database.module.ts&#45;&gt;modules/database/database.provider.ts -->
<g id="edge26" class="edge">
<title>modules/database/database.module.ts&#45;&gt;modules/database/database.provider.ts</title>
<path fill="none" stroke="#757575" d="M800.29,-553.09C815.74,-553.5 831.61,-553.91 847.25,-554.32"/>
<polygon fill="#757575" stroke="#757575" points="846.98,-557.81 857.07,-554.57 847.16,-550.81 846.98,-557.81"/>
</g>
<!-- modules/notification/notification.module.ts&#45;&gt;modules/database/database.module.ts -->
<g id="edge29" class="edge">
<title>modules/notification/notification.module.ts&#45;&gt;modules/database/database.module.ts</title>
<path fill="none" stroke="#757575" d="M458.57,-520.25C494.53,-525.18 536.1,-530.89 573.1,-535.96"/>
<polygon fill="#757575" stroke="#757575" points="572.54,-539.42 582.92,-537.31 573.49,-532.48 572.54,-539.42"/>
</g>
<!-- modules/notification/notification.controller.ts -->
<g id="node28" class="node">
<title>modules/notification/notification.controller.ts</title>
<path fill="none" stroke="#c6c5fe" d="M806.08,-519.75C806.08,-519.75 544.92,-519.75 544.92,-519.75 540.96,-519.75 537,-515.79 537,-511.83 537,-511.83 537,-503.92 537,-503.92 537,-499.96 540.96,-496 544.92,-496 544.92,-496 806.08,-496 806.08,-496 810.04,-496 814,-499.96 814,-503.92 814,-503.92 814,-511.83 814,-511.83 814,-515.79 810.04,-519.75 806.08,-519.75"/>
<text xml:space="preserve" text-anchor="middle" x="675.5" y="-502.45" font-family="Arial" font-size="14.00" fill="#c6c5fe">modules/notification/notification.controller.ts</text>
</g>
<!-- modules/notification/notification.module.ts&#45;&gt;modules/notification/notification.controller.ts -->
<g id="edge30" class="edge">
<title>modules/notification/notification.module.ts&#45;&gt;modules/notification/notification.controller.ts</title>
<path fill="none" stroke="#757575" d="M501.31,-507.88C509.32,-507.88 517.4,-507.88 525.46,-507.88"/>
<polygon fill="#757575" stroke="#757575" points="525.33,-511.38 535.33,-507.88 525.33,-504.38 525.33,-511.38"/>
</g>
<!-- modules/notification/notification.service.ts -->
<g id="node29" class="node">
<title>modules/notification/notification.service.ts</title>
<path fill="none" stroke="#c6c5fe" d="M1109.71,-479.75C1109.71,-479.75 860.54,-479.75 860.54,-479.75 856.58,-479.75 852.62,-475.79 852.62,-471.83 852.62,-471.83 852.62,-463.92 852.62,-463.92 852.62,-459.96 856.58,-456 860.54,-456 860.54,-456 1109.71,-456 1109.71,-456 1113.67,-456 1117.62,-459.96 1117.62,-463.92 1117.62,-463.92 1117.62,-471.83 1117.62,-471.83 1117.62,-475.79 1113.67,-479.75 1109.71,-479.75"/>
<text xml:space="preserve" text-anchor="middle" x="985.12" y="-462.45" font-family="Arial" font-size="14.00" fill="#c6c5fe">modules/notification/notification.service.ts</text>
</g>
<!-- modules/notification/notification.module.ts&#45;&gt;modules/notification/notification.service.ts -->
<g id="edge32" class="edge">
<title>modules/notification/notification.module.ts&#45;&gt;modules/notification/notification.service.ts</title>
<path fill="none" stroke="#757575" d="M456.62,-495.51C482.48,-492.26 510.83,-489.06 537,-486.88 638.44,-478.42 753.15,-473.64 840.98,-470.99"/>
<polygon fill="#757575" stroke="#757575" points="840.97,-474.49 850.86,-470.7 840.76,-467.5 840.97,-474.49"/>
</g>
<!-- modules/notification/notification.provider.ts -->
<g id="node30" class="node">
<title>modules/notification/notification.provider.ts</title>
<path fill="none" stroke="#c6c5fe" d="M1112.33,-421.75C1112.33,-421.75 857.92,-421.75 857.92,-421.75 853.96,-421.75 850,-417.79 850,-413.83 850,-413.83 850,-405.92 850,-405.92 850,-401.96 853.96,-398 857.92,-398 857.92,-398 1112.33,-398 1112.33,-398 1116.29,-398 1120.25,-401.96 1120.25,-405.92 1120.25,-405.92 1120.25,-413.83 1120.25,-413.83 1120.25,-417.79 1116.29,-421.75 1112.33,-421.75"/>
<text xml:space="preserve" text-anchor="middle" x="985.12" y="-404.45" font-family="Arial" font-size="14.00" fill="#c6c5fe">modules/notification/notification.provider.ts</text>
</g>
<!-- modules/notification/notification.module.ts&#45;&gt;modules/notification/notification.provider.ts -->
<g id="edge31" class="edge">
<title>modules/notification/notification.module.ts&#45;&gt;modules/notification/notification.provider.ts</title>
<path fill="none" stroke="#757575" d="M414.62,-495.53C448.35,-486.87 495.27,-475.51 537,-467.88 641.85,-448.69 761.67,-433.51 850.87,-423.49"/>
<polygon fill="#757575" stroke="#757575" points="851.09,-426.99 860.64,-422.4 850.31,-420.03 851.09,-426.99"/>
</g>
<!-- modules/payments/payments.controller.ts -->
<g id="node31" class="node">
<title>modules/payments/payments.controller.ts</title>
<path fill="none" stroke="#cfffac" d="M800.83,-401.75C800.83,-401.75 550.17,-401.75 550.17,-401.75 546.21,-401.75 542.25,-397.79 542.25,-393.83 542.25,-393.83 542.25,-385.92 542.25,-385.92 542.25,-381.96 546.21,-378 550.17,-378 550.17,-378 800.83,-378 800.83,-378 804.79,-378 808.75,-381.96 808.75,-385.92 808.75,-385.92 808.75,-393.83 808.75,-393.83 808.75,-397.79 804.79,-401.75 800.83,-401.75"/>
<text xml:space="preserve" text-anchor="middle" x="675.5" y="-384.45" font-family="Arial" font-size="14.00" fill="#cfffac">modules/payments/payments.controller.ts</text>
</g>
<!-- modules/payments/payments.module.ts&#45;&gt;modules/payments/payments.controller.ts -->
<g id="edge37" class="edge">
<title>modules/payments/payments.module.ts&#45;&gt;modules/payments/payments.controller.ts</title>
<path fill="none" stroke="#757575" d="M495.98,-389.88C507.55,-389.88 519.31,-389.88 530.99,-389.88"/>
<polygon fill="#757575" stroke="#757575" points="530.65,-393.38 540.65,-389.88 530.65,-386.38 530.65,-393.38"/>
</g>
<!-- modules/payments/payments.service.ts -->
<g id="node32" class="node">
<title>modules/payments/payments.service.ts</title>
<path fill="none" stroke="#cfffac" d="M794.83,-359.75C794.83,-359.75 556.17,-359.75 556.17,-359.75 552.21,-359.75 548.25,-355.79 548.25,-351.83 548.25,-351.83 548.25,-343.92 548.25,-343.92 548.25,-339.96 552.21,-336 556.17,-336 556.17,-336 794.83,-336 794.83,-336 798.79,-336 802.75,-339.96 802.75,-343.92 802.75,-343.92 802.75,-351.83 802.75,-351.83 802.75,-355.79 798.79,-359.75 794.83,-359.75"/>
<text xml:space="preserve" text-anchor="middle" x="675.5" y="-342.45" font-family="Arial" font-size="14.00" fill="#cfffac">modules/payments/payments.service.ts</text>
</g>
<!-- modules/payments/payments.module.ts&#45;&gt;modules/payments/payments.service.ts -->
<g id="edge38" class="edge">
<title>modules/payments/payments.module.ts&#45;&gt;modules/payments/payments.service.ts</title>
<path fill="none" stroke="#757575" d="M458.57,-377.5C494.53,-372.57 536.1,-366.86 573.1,-361.79"/>
<polygon fill="#757575" stroke="#757575" points="573.49,-365.27 582.92,-360.44 572.54,-358.33 573.49,-365.27"/>
</g>
<!-- modules/reviews/reviews.controller.ts -->
<g id="node33" class="node">
<title>modules/reviews/reviews.controller.ts</title>
<path fill="none" stroke="#cfffac" d="M787.33,-317.75C787.33,-317.75 563.67,-317.75 563.67,-317.75 559.71,-317.75 555.75,-313.79 555.75,-309.83 555.75,-309.83 555.75,-301.92 555.75,-301.92 555.75,-297.96 559.71,-294 563.67,-294 563.67,-294 787.33,-294 787.33,-294 791.29,-294 795.25,-297.96 795.25,-301.92 795.25,-301.92 795.25,-309.83 795.25,-309.83 795.25,-313.79 791.29,-317.75 787.33,-317.75"/>
<text xml:space="preserve" text-anchor="middle" x="675.5" y="-300.45" font-family="Arial" font-size="14.00" fill="#cfffac">modules/reviews/reviews.controller.ts</text>
</g>
<!-- modules/reviews/reviews.module.ts&#45;&gt;modules/reviews/reviews.controller.ts -->
<g id="edge39" class="edge">
<title>modules/reviews/reviews.module.ts&#45;&gt;modules/reviews/reviews.controller.ts</title>
<path fill="none" stroke="#757575" d="M482.36,-305.88C502.44,-305.88 523.49,-305.88 543.98,-305.88"/>
<polygon fill="#757575" stroke="#757575" points="543.78,-309.38 553.78,-305.88 543.78,-302.38 543.78,-309.38"/>
</g>
<!-- modules/reviews/reviews.service.ts -->
<g id="node34" class="node">
<title>modules/reviews/reviews.service.ts</title>
<path fill="none" stroke="#cfffac" d="M781.33,-275.75C781.33,-275.75 569.67,-275.75 569.67,-275.75 565.71,-275.75 561.75,-271.79 561.75,-267.83 561.75,-267.83 561.75,-259.92 561.75,-259.92 561.75,-255.96 565.71,-252 569.67,-252 569.67,-252 781.33,-252 781.33,-252 785.29,-252 789.25,-255.96 789.25,-259.92 789.25,-259.92 789.25,-267.83 789.25,-267.83 789.25,-271.79 785.29,-275.75 781.33,-275.75"/>
<text xml:space="preserve" text-anchor="middle" x="675.5" y="-258.45" font-family="Arial" font-size="14.00" fill="#cfffac">modules/reviews/reviews.service.ts</text>
</g>
<!-- modules/reviews/reviews.module.ts&#45;&gt;modules/reviews/reviews.service.ts -->
<g id="edge40" class="edge">
<title>modules/reviews/reviews.module.ts&#45;&gt;modules/reviews/reviews.service.ts</title>
<path fill="none" stroke="#757575" d="M458.57,-293.5C494.53,-288.57 536.1,-282.86 573.1,-277.79"/>
<polygon fill="#757575" stroke="#757575" points="573.49,-281.27 582.92,-276.44 572.54,-274.33 573.49,-281.27"/>
</g>
<!-- modules/schedules/schedules.controller.ts -->
<g id="node35" class="node">
<title>modules/schedules/schedules.controller.ts</title>
<path fill="none" stroke="#cfffac" d="M802.33,-233.75C802.33,-233.75 548.67,-233.75 548.67,-233.75 544.71,-233.75 540.75,-229.79 540.75,-225.83 540.75,-225.83 540.75,-217.92 540.75,-217.92 540.75,-213.96 544.71,-210 548.67,-210 548.67,-210 802.33,-210 802.33,-210 806.29,-210 810.25,-213.96 810.25,-217.92 810.25,-217.92 810.25,-225.83 810.25,-225.83 810.25,-229.79 806.29,-233.75 802.33,-233.75"/>
<text xml:space="preserve" text-anchor="middle" x="675.5" y="-216.45" font-family="Arial" font-size="14.00" fill="#cfffac">modules/schedules/schedules.controller.ts</text>
</g>
<!-- modules/schedules/schedules.module.ts&#45;&gt;modules/schedules/schedules.controller.ts -->
<g id="edge41" class="edge">
<title>modules/schedules/schedules.module.ts&#45;&gt;modules/schedules/schedules.controller.ts</title>
<path fill="none" stroke="#757575" d="M497.31,-221.88C507.75,-221.88 518.35,-221.88 528.89,-221.88"/>
<polygon fill="#757575" stroke="#757575" points="528.79,-225.38 538.79,-221.88 528.79,-218.38 528.79,-225.38"/>
</g>
<!-- modules/schedules/schedules.service.ts -->
<g id="node36" class="node">
<title>modules/schedules/schedules.service.ts</title>
<path fill="none" stroke="#cfffac" d="M796.33,-191.75C796.33,-191.75 554.67,-191.75 554.67,-191.75 550.71,-191.75 546.75,-187.79 546.75,-183.83 546.75,-183.83 546.75,-175.92 546.75,-175.92 546.75,-171.96 550.71,-168 554.67,-168 554.67,-168 796.33,-168 796.33,-168 800.29,-168 804.25,-171.96 804.25,-175.92 804.25,-175.92 804.25,-183.83 804.25,-183.83 804.25,-187.79 800.29,-191.75 796.33,-191.75"/>
<text xml:space="preserve" text-anchor="middle" x="675.5" y="-174.45" font-family="Arial" font-size="14.00" fill="#cfffac">modules/schedules/schedules.service.ts</text>
</g>
<!-- modules/schedules/schedules.module.ts&#45;&gt;modules/schedules/schedules.service.ts -->
<g id="edge42" class="edge">
<title>modules/schedules/schedules.module.ts&#45;&gt;modules/schedules/schedules.service.ts</title>
<path fill="none" stroke="#757575" d="M458.57,-209.5C494.53,-204.57 536.1,-198.86 573.1,-193.79"/>
<polygon fill="#757575" stroke="#757575" points="573.49,-197.27 582.92,-192.44 572.54,-190.33 573.49,-197.27"/>
</g>
<!-- modules/services/services.controller.ts -->
<g id="node37" class="node">
<title>modules/services/services.controller.ts</title>
<path fill="none" stroke="#cfffac" d="M791.08,-149.75C791.08,-149.75 559.92,-149.75 559.92,-149.75 555.96,-149.75 552,-145.79 552,-141.83 552,-141.83 552,-133.92 552,-133.92 552,-129.96 555.96,-126 559.92,-126 559.92,-126 791.08,-126 791.08,-126 795.04,-126 799,-129.96 799,-133.92 799,-133.92 799,-141.83 799,-141.83 799,-145.79 795.04,-149.75 791.08,-149.75"/>
<text xml:space="preserve" text-anchor="middle" x="675.5" y="-132.45" font-family="Arial" font-size="14.00" fill="#cfffac">modules/services/services.controller.ts</text>
</g>
<!-- modules/services/services.module.ts&#45;&gt;modules/services/services.controller.ts -->
<g id="edge43" class="edge">
<title>modules/services/services.module.ts&#45;&gt;modules/services/services.controller.ts</title>
<path fill="none" stroke="#757575" d="M486.29,-137.88C503.92,-137.88 522.21,-137.88 540.15,-137.88"/>
<polygon fill="#757575" stroke="#757575" points="540.06,-141.38 550.06,-137.88 540.06,-134.38 540.06,-141.38"/>
</g>
<!-- modules/services/services.service.ts -->
<g id="node38" class="node">
<title>modules/services/services.service.ts</title>
<path fill="none" stroke="#cfffac" d="M785.08,-107.75C785.08,-107.75 565.92,-107.75 565.92,-107.75 561.96,-107.75 558,-103.79 558,-99.83 558,-99.83 558,-91.92 558,-91.92 558,-87.96 561.96,-84 565.92,-84 565.92,-84 785.08,-84 785.08,-84 789.04,-84 793,-87.96 793,-91.92 793,-91.92 793,-99.83 793,-99.83 793,-103.79 789.04,-107.75 785.08,-107.75"/>
<text xml:space="preserve" text-anchor="middle" x="675.5" y="-90.45" font-family="Arial" font-size="14.00" fill="#cfffac">modules/services/services.service.ts</text>
</g>
<!-- modules/services/services.module.ts&#45;&gt;modules/services/services.service.ts -->
<g id="edge44" class="edge">
<title>modules/services/services.module.ts&#45;&gt;modules/services/services.service.ts</title>
<path fill="none" stroke="#757575" d="M458.57,-125.5C494.53,-120.57 536.1,-114.86 573.1,-109.79"/>
<polygon fill="#757575" stroke="#757575" points="573.49,-113.27 582.92,-108.44 572.54,-106.33 573.49,-113.27"/>
</g>
<!-- modules/users/users.controller.ts -->
<g id="node39" class="node">
<title>modules/users/users.controller.ts</title>
<path fill="none" stroke="#cfffac" d="M774.58,-65.75C774.58,-65.75 576.42,-65.75 576.42,-65.75 572.46,-65.75 568.5,-61.79 568.5,-57.83 568.5,-57.83 568.5,-49.92 568.5,-49.92 568.5,-45.96 572.46,-42 576.42,-42 576.42,-42 774.58,-42 774.58,-42 778.54,-42 782.5,-45.96 782.5,-49.92 782.5,-49.92 782.5,-57.83 782.5,-57.83 782.5,-61.79 778.54,-65.75 774.58,-65.75"/>
<text xml:space="preserve" text-anchor="middle" x="675.5" y="-48.45" font-family="Arial" font-size="14.00" fill="#cfffac">modules/users/users.controller.ts</text>
</g>
<!-- modules/users/users.module.ts&#45;&gt;modules/users/users.controller.ts -->
<g id="edge45" class="edge">
<title>modules/users/users.module.ts&#45;&gt;modules/users/users.controller.ts</title>
<path fill="none" stroke="#757575" d="M469.88,-53.88C497.7,-53.88 528.08,-53.88 556.71,-53.88"/>
<polygon fill="#757575" stroke="#757575" points="556.5,-57.38 566.5,-53.88 556.5,-50.38 556.5,-57.38"/>
</g>
<!-- modules/users/users.service.ts -->
<g id="node40" class="node">
<title>modules/users/users.service.ts</title>
<path fill="none" stroke="#cfffac" d="M768.58,-23.75C768.58,-23.75 582.42,-23.75 582.42,-23.75 578.46,-23.75 574.5,-19.79 574.5,-15.83 574.5,-15.83 574.5,-7.92 574.5,-7.92 574.5,-3.96 578.46,0 582.42,0 582.42,0 768.58,0 768.58,0 772.54,0 776.5,-3.96 776.5,-7.92 776.5,-7.92 776.5,-15.83 776.5,-15.83 776.5,-19.79 772.54,-23.75 768.58,-23.75"/>
<text xml:space="preserve" text-anchor="middle" x="675.5" y="-6.45" font-family="Arial" font-size="14.00" fill="#cfffac">modules/users/users.service.ts</text>
</g>
<!-- modules/users/users.module.ts&#45;&gt;modules/users/users.service.ts -->
<g id="edge46" class="edge">
<title>modules/users/users.module.ts&#45;&gt;modules/users/users.service.ts</title>
<path fill="none" stroke="#757575" d="M458.57,-41.5C494.53,-36.57 536.1,-30.86 573.1,-25.79"/>
<polygon fill="#757575" stroke="#757575" points="573.49,-29.27 582.92,-24.44 572.54,-22.33 573.49,-29.27"/>
</g>
<!-- common/enums/notification_type.enum.ts -->
<g id="node15" class="node">
<title>common/enums/notification_type.enum.ts</title>
<path fill="none" stroke="#cfffac" d="M1628.83,-491.75C1628.83,-491.75 1376.67,-491.75 1376.67,-491.75 1372.71,-491.75 1368.75,-487.79 1368.75,-483.83 1368.75,-483.83 1368.75,-475.92 1368.75,-475.92 1368.75,-471.96 1372.71,-468 1376.67,-468 1376.67,-468 1628.83,-468 1628.83,-468 1632.79,-468 1636.75,-471.96 1636.75,-475.92 1636.75,-475.92 1636.75,-483.83 1636.75,-483.83 1636.75,-487.79 1632.79,-491.75 1628.83,-491.75"/>
<text xml:space="preserve" text-anchor="middle" x="1502.75" y="-474.45" font-family="Arial" font-size="14.00" fill="#cfffac">common/enums/notification_type.enum.ts</text>
</g>
<!-- entities/notification.entity.ts -->
<g id="node16" class="node">
<title>entities/notification.entity.ts</title>
<path fill="none" stroke="#c6c5fe" d="M1324.83,-413.75C1324.83,-413.75 1164.17,-413.75 1164.17,-413.75 1160.21,-413.75 1156.25,-409.79 1156.25,-405.83 1156.25,-405.83 1156.25,-397.92 1156.25,-397.92 1156.25,-393.96 1160.21,-390 1164.17,-390 1164.17,-390 1324.83,-390 1324.83,-390 1328.79,-390 1332.75,-393.96 1332.75,-397.92 1332.75,-397.92 1332.75,-405.83 1332.75,-405.83 1332.75,-409.79 1328.79,-413.75 1324.83,-413.75"/>
<text xml:space="preserve" text-anchor="middle" x="1244.5" y="-396.45" font-family="Arial" font-size="14.00" fill="#c6c5fe">entities/notification.entity.ts</text>
</g>
<!-- entities/notification.entity.ts&#45;&gt;common/enums/notification_type.enum.ts -->
<g id="edge15" class="edge">
<title>entities/notification.entity.ts&#45;&gt;common/enums/notification_type.enum.ts</title>
<path fill="none" stroke="#757575" d="M1283.74,-414.21C1308.05,-421.99 1340.2,-432.17 1368.75,-440.88 1394.8,-448.81 1423.81,-457.36 1448.07,-464.42"/>
<polygon fill="#757575" stroke="#757575" points="1446.82,-467.7 1457.4,-467.12 1448.77,-460.98 1446.82,-467.7"/>
</g>
<!-- entities/user.entity.ts -->
<g id="node17" class="node">
<title>entities/user.entity.ts</title>
<path fill="none" stroke="#cfffac" d="M1563.58,-431.75C1563.58,-431.75 1441.92,-431.75 1441.92,-431.75 1437.96,-431.75 1434,-427.79 1434,-423.83 1434,-423.83 1434,-415.92 1434,-415.92 1434,-411.96 1437.96,-408 1441.92,-408 1441.92,-408 1563.58,-408 1563.58,-408 1567.54,-408 1571.5,-411.96 1571.5,-415.92 1571.5,-415.92 1571.5,-423.83 1571.5,-423.83 1571.5,-427.79 1567.54,-431.75 1563.58,-431.75"/>
<text xml:space="preserve" text-anchor="middle" x="1502.75" y="-414.45" font-family="Arial" font-size="14.00" fill="#cfffac">entities/user.entity.ts</text>
</g>
<!-- entities/notification.entity.ts&#45;&gt;entities/user.entity.ts -->
<g id="edge16" class="edge">
<title>entities/notification.entity.ts&#45;&gt;entities/user.entity.ts</title>
<path fill="none" stroke="#757575" d="M1332.97,-408.02C1361.9,-410.05 1393.91,-412.3 1422.21,-414.29"/>
<polygon fill="#757575" stroke="#757575" points="1421.94,-417.78 1432.17,-414.99 1422.44,-410.79 1421.94,-417.78"/>
</g>
<!-- main.ts -->
<g id="node18" class="node">
<title>main.ts</title>
<path fill="none" stroke="#c6c5fe" d="M52.33,-561.75C52.33,-561.75 7.92,-561.75 7.92,-561.75 3.96,-561.75 0,-557.79 0,-553.83 0,-553.83 0,-545.92 0,-545.92 0,-541.96 3.96,-538 7.92,-538 7.92,-538 52.33,-538 52.33,-538 56.29,-538 60.25,-541.96 60.25,-545.92 60.25,-545.92 60.25,-553.83 60.25,-553.83 60.25,-557.79 56.29,-561.75 52.33,-561.75"/>
<text xml:space="preserve" text-anchor="middle" x="30.12" y="-544.45" font-family="Arial" font-size="14.00" fill="#c6c5fe">main.ts</text>
</g>
<!-- main.ts&#45;&gt;app.module.ts -->
<g id="edge17" class="edge">
<title>main.ts&#45;&gt;app.module.ts</title>
<path fill="none" stroke="#757575" d="M60.71,-549.88C68.11,-549.88 76.33,-549.88 84.66,-549.88"/>
<polygon fill="#757575" stroke="#757575" points="84.51,-553.38 94.51,-549.88 84.51,-546.38 84.51,-553.38"/>
</g>
<!-- modules/notification/notification.controller.ts&#45;&gt;common/enums/notification_type.enum.ts -->
<g id="edge27" class="edge">
<title>modules/notification/notification.controller.ts&#45;&gt;common/enums/notification_type.enum.ts</title>
<path fill="none" stroke="#757575" d="M814.48,-504.35C947.29,-500.79 1153.79,-494.84 1332.75,-487.88 1340.72,-487.56 1348.9,-487.23 1357.16,-486.88"/>
<polygon fill="#757575" stroke="#757575" points="1357.1,-490.39 1366.94,-486.46 1356.8,-483.39 1357.1,-490.39"/>
</g>
<!-- modules/notification/notification.controller.ts&#45;&gt;modules/notification/notification.service.ts -->
<g id="edge28" class="edge">
<title>modules/notification/notification.controller.ts&#45;&gt;modules/notification/notification.service.ts</title>
<path fill="none" stroke="#757575" d="M771.31,-495.55C805.08,-491.16 843.32,-486.18 877.98,-481.68"/>
<polygon fill="#757575" stroke="#757575" points="878.13,-485.19 887.6,-480.43 877.23,-478.24 878.13,-485.19"/>
</g>
<!-- modules/notification/notification.service.ts&#45;&gt;common/enums/notification_type.enum.ts -->
<g id="edge34" class="edge">
<title>modules/notification/notification.service.ts&#45;&gt;common/enums/notification_type.enum.ts</title>
<path fill="none" stroke="#757575" d="M1117.91,-470.94C1190.99,-472.64 1281.99,-474.76 1357.04,-476.51"/>
<polygon fill="#757575" stroke="#757575" points="1356.87,-480 1366.95,-476.74 1357.04,-473.01 1356.87,-480"/>
</g>
<!-- modules/notification/notification.service.ts&#45;&gt;entities/notification.entity.ts -->
<g id="edge35" class="edge">
<title>modules/notification/notification.service.ts&#45;&gt;entities/notification.entity.ts</title>
<path fill="none" stroke="#757575" d="M1034.23,-455.54C1076.84,-444.61 1139.17,-428.63 1184.72,-416.95"/>
<polygon fill="#757575" stroke="#757575" points="1185.34,-420.4 1194.16,-414.53 1183.61,-413.62 1185.34,-420.4"/>
</g>
<!-- modules/notification/notification.service.ts&#45;&gt;entities/user.entity.ts -->
<g id="edge36" class="edge">
<title>modules/notification/notification.service.ts&#45;&gt;entities/user.entity.ts</title>
<path fill="none" stroke="#757575" d="M1117.91,-455.61C1214.23,-446.64 1341.68,-434.78 1422.71,-427.23"/>
<polygon fill="#757575" stroke="#757575" points="1422.69,-430.75 1432.32,-426.34 1422.04,-423.78 1422.69,-430.75"/>
</g>
<!-- modules/notification/notification.provider.ts&#45;&gt;entities/notification.entity.ts -->
<g id="edge33" class="edge">
<title>modules/notification/notification.provider.ts&#45;&gt;entities/notification.entity.ts</title>
<path fill="none" stroke="#757575" d="M1120.47,-405.7C1128.57,-405.45 1136.65,-405.2 1144.57,-404.95"/>
<polygon fill="#757575" stroke="#757575" points="1144.64,-408.45 1154.53,-404.64 1144.42,-401.45 1144.64,-408.45"/>
</g>
</g>
</svg>
